<svg width="493" height="494" viewBox="0 0 493 494" fill="none" xmlns="http://www.w3.org/2000/svg">
<path d="M220.489 1.3407C185.289 5.07403 144.622 19.2074 115.156 37.8741C85.1557 56.9407 56.889 85.2075 37.8224 115.207C29.1557 128.807 18.6224 151.341 13.0224 167.741C-13.2443 246.407 0.622402 329.608 51.0224 396.541C61.289 410.274 82.7557 431.741 96.489 442.007C157.422 488.007 233.156 503.874 305.289 485.741C350.089 474.541 388.089 453.074 420.622 420.674C448.089 393.074 467.822 361.341 479.956 325.341C506.222 246.674 492.356 163.474 441.956 96.5407C431.689 82.8074 410.222 61.3407 396.489 51.0741C345.156 12.2741 283.022 -5.19263 220.489 1.3407ZM190.022 461.267L227.822 454.541L222.222 453.741C158.356 444.541 255.156 224.941 220.489 173.607C174.222 105.074 174.956 41.4814 79.9557 111.341C57.4557 121.841 -23.6 286.807 32 277.074C39.8666 275.607 72.089 384 73.0224 384C74.2224 383.867 190.022 295.667 190.022 461.267ZM289.422 42.674C303.822 45.474 320.756 51.2074 335.822 58.1407C344.756 62.2741 345.556 62.8074 343.156 64.1407C341.689 64.9407 324.489 75.2074 304.756 86.8074C285.156 98.4074 268.222 108.274 267.156 108.674C265.422 109.341 265.156 104.807 265.156 74.0074V38.5407L270.889 39.3407C273.956 39.7407 282.356 41.3407 289.422 42.674ZM387.289 92.8074C391.289 96.2741 396.889 101.874 399.822 105.341L405.022 111.607L337.422 151.607C300.222 173.741 268.756 192.141 267.289 192.674C265.022 193.607 264.889 192.941 265.422 180.407C265.822 169.207 266.489 165.874 269.689 159.474C271.689 155.341 275.556 150.007 278.222 147.741C281.956 144.807 377.422 87.0741 379.556 86.6741C379.822 86.5407 383.289 89.3407 387.289 92.8074ZM437.289 162.274C439.556 167.741 441.022 172.807 440.756 173.607C440.356 174.541 402.089 197.607 355.689 225.074C309.156 252.541 269.689 276.007 267.956 277.074L264.756 279.074L265.422 264.941C265.956 253.074 266.622 249.607 269.689 243.341C271.689 239.207 275.422 234.141 277.956 232.141C280.356 230.141 315.022 209.207 354.756 185.607L427.156 142.807L430.222 147.607C431.822 150.274 435.022 156.941 437.289 162.274ZM453.822 224.141C454.356 230.274 454.489 238.807 454.222 243.207L453.822 251.207L364.489 304.141C315.422 333.207 272.889 358.407 269.956 360.007L264.756 362.941L265.422 349.074C266.089 332.807 268.889 325.341 276.756 317.874C281.689 313.207 448.222 213.474 451.422 213.341C452.356 213.207 453.289 217.207 453.822 224.141ZM447.156 303.474C445.156 311.741 436.622 333.207 431.556 342.541C406.089 390.541 364.756 426.141 314.089 443.741C303.289 447.474 285.289 451.607 270.622 453.741L264.889 454.674L265.422 436.941C266.089 416.807 268.089 410.674 276.889 402.141C281.156 397.874 443.956 300.141 447.022 299.874C447.556 299.874 447.689 301.474 447.156 303.474Z" fill="#00E6B4"/>
</svg>
